<svg data-logo="logo" xmlns="http://www.w3.org/2000/svg" viewBox="0 0 218 44">
            <g id="logogram" transform="translate(0, 1.5) rotate(0)"><path d="M17.9684 6.25856C17.6803 5.58057 17.2026 4.63754 16.4999 3.61901C15.7279 2.49877 14.6755 1.27376 13.2902 0.196673C13.9559 0.167395 14.5954 0.196672 15.1855 0.26139C15.6216 0.686678 16.0084 1.15049 16.3458 1.62663C17.2873 2.9518 17.8174 4.33244 17.9576 5.16761C17.9638 5.20921 17.9792 5.2462 18.0008 5.2801C18.0208 5.2462 18.0362 5.20921 18.0424 5.16761C18.1826 4.33244 18.7126 2.9518 19.6541 1.62663C19.9916 1.15049 20.3784 0.686678 20.8144 0.26139C21.4061 0.196672 22.0441 0.167395 22.7097 0.196673C21.3245 1.27376 20.2721 2.49877 19.5001 3.61901C18.7974 4.63754 18.3197 5.58057 18.0331 6.25856V6.41574C18.0223 6.38955 18.0115 6.36335 18.0008 6.33561C17.9884 6.36335 17.9776 6.38955 17.9684 6.41574V6.25856ZM19.648 0.446302C19.4138 0.719041 19.1965 0.996405 18.9977 1.27685C18.6125 1.8177 18.292 2.37242 18.0331 2.90094V3.03501C18.0223 3.01344 18.0115 2.99033 18.0008 2.96721C17.9884 2.99033 17.9776 3.01344 17.9684 3.03501V2.90094C17.7095 2.37242 17.3875 1.8177 17.0023 1.27685C16.8035 0.996405 16.5878 0.719041 16.352 0.446302C17.0208 0.586524 17.5847 0.765268 18.0008 0.937849C18.4168 0.765268 18.9792 0.586524 19.648 0.446302ZM17.2349 6.46659C16.8559 6.11988 16.466 5.67611 16.0484 5.1707C15.8836 4.97192 15.7141 4.76235 15.5415 4.54816C15.1316 4.04275 14.6971 3.50498 14.2333 2.98723C13.3796 2.03496 12.3888 1.10273 11.1792 0.486367C11.5321 0.401617 11.8818 0.338431 12.2285 0.290663C13.8141 1.39857 14.9945 2.73761 15.8389 3.96109C16.5138 4.94264 16.9668 5.8379 17.2349 6.46659ZM14.8974 4.91645C15.0746 5.13526 15.2487 5.35098 15.4229 5.56054C15.617 5.7963 15.8112 6.02589 16.0068 6.24316C15.8019 6.18615 15.6077 6.143 15.4213 6.11527C15.4044 6.10448 15.3889 6.09369 15.3735 6.0829C15.07 5.86872 14.7464 5.58057 14.3904 5.24004C14.1978 5.05513 13.996 4.85635 13.7849 4.64833C13.2348 4.10439 12.6276 3.50344 11.9758 2.97337C11.0713 2.23837 10.0266 1.58965 8.82163 1.3616C9.26232 1.13046 9.71074 0.939392 10.1591 0.783761C11.5121 1.29226 12.6246 2.27997 13.6246 3.39866C14.0761 3.901 14.4937 4.4172 14.8974 4.91645ZM17.9684 40.2831C17.9684 40.2092 17.9684 40.1306 17.9684 40.052C17.8082 39.5019 17.6078 38.9626 17.3859 38.431C17.1117 37.7745 16.8035 37.1274 16.4968 36.4894L16.3998 36.2891C16.1255 35.719 15.8543 35.1581 15.6093 34.5972C14.5476 32.1749 13.9913 29.8574 15.694 27.3673C16.3844 27.58 17.2041 27.6755 18.0008 27.6817C18.7974 27.6755 19.6156 27.58 20.3059 27.3673C22.0086 29.8574 21.4539 32.1749 20.3907 34.5972C20.1457 35.1581 19.8745 35.719 19.6002 36.2891L19.5031 36.4894C19.1965 37.1274 18.8883 37.7745 18.6141 38.431C18.3937 38.9626 18.1934 39.5019 18.0331 40.052C18.0331 40.1306 18.0331 40.2092 18.0331 40.2831C18.0223 40.2446 18.0115 40.2046 18.0008 40.166C17.9884 40.2046 17.9776 40.2446 17.9684 40.2831ZM14.9852 27.0946C13.1577 29.8251 13.8095 32.3722 14.8897 34.8345C15.1393 35.4062 15.4151 35.9779 15.6894 36.548L15.7865 36.7483C16.0931 37.3847 16.3951 38.0196 16.6617 38.659C16.9591 39.374 17.2118 40.0905 17.3767 40.8148C16.9144 40.032 16.3998 39.3586 15.845 38.7638C15.6262 38.337 15.3766 37.9071 15.1162 37.4772C14.8527 37.0457 14.5784 36.6127 14.3011 36.1782C13.7248 35.2737 13.1423 34.3584 12.6616 33.4246C11.9527 32.0517 11.5013 30.7003 11.643 29.3967C11.7663 28.2518 12.3518 27.1085 13.7063 25.9959C13.9605 26.4567 14.4135 26.8219 14.9852 27.0946ZM11.9574 33.6973C12.452 34.6573 13.0622 35.6158 13.6477 36.5357C13.7833 36.7483 13.9189 36.961 14.0499 37.169C12.9605 36.3538 11.7848 35.6836 10.586 35.0009L10.4411 34.9177C9.21765 32.1718 9.11595 30.0069 9.56435 28.2811C10.099 26.224 11.4242 24.7416 12.6893 23.6029C12.697 23.6122 12.7062 23.6214 12.7139 23.6306C12.8172 23.7354 12.9112 23.8202 12.9867 23.8818C13.0298 23.9173 13.0714 23.9481 13.1115 23.9758C13.1392 23.9943 13.167 24.0113 13.1978 24.0282C13.261 24.0636 13.3349 24.0929 13.4104 24.1114C13.4782 24.1284 13.5491 24.1422 13.6246 24.1515C13.6508 24.1438 13.6755 24.1361 13.7001 24.1299C14.0237 24.0405 14.4197 23.9758 14.8126 23.9126C14.9297 23.8941 15.0453 23.8757 15.1594 23.8556C15.6786 23.7663 16.1825 23.6615 16.6124 23.4858C17.0254 23.3163 17.3459 23.0898 17.5431 22.7647L17.3012 21.3763C17.2257 20.9449 16.9699 20.5504 16.5647 20.2915C16.5215 20.2638 16.4799 20.2376 16.4367 20.2099L16.4352 20.2083C15.879 19.8554 15.3011 19.4872 14.731 18.9124C14.4675 18.6443 14.3458 18.2961 14.3458 17.9432C14.7633 18.2914 15.3196 18.4856 15.8974 18.4856H20.1025C20.6804 18.4856 21.2366 18.2914 21.6542 17.9432C21.6542 18.2961 21.534 18.6443 21.269 18.9124C20.6989 19.4872 20.121 19.8554 19.5648 20.2083L19.5586 20.2129C19.517 20.2391 19.4769 20.2653 19.4353 20.2915C19.0301 20.5504 18.7758 20.9449 18.7003 21.3763L18.4569 22.7647C18.6541 23.0898 18.9762 23.3163 19.3876 23.4858C19.8175 23.6615 20.3214 23.7663 20.8406 23.8556C20.9547 23.8757 21.0718 23.8941 21.1889 23.9126C21.5803 23.9758 21.9778 24.0405 22.2999 24.1299C22.3245 24.1361 22.3507 24.1438 22.3754 24.1515C22.4509 24.1422 22.5233 24.1284 22.5895 24.1114C22.6651 24.0929 22.739 24.0636 22.8022 24.0282C22.833 24.0113 22.8607 23.9943 22.8885 23.9758C22.9285 23.9481 22.9717 23.9173 23.0133 23.8818C23.0904 23.8202 23.1828 23.7354 23.286 23.6306C23.2922 23.6245 23.2968 23.6183 23.303 23.6122C23.3061 23.6091 23.3091 23.606 23.3107 23.6029C24.5758 24.7416 25.9009 26.224 26.4356 28.2811C26.884 30.0069 26.7823 32.1718 25.5589 34.9177L25.414 35.0009C24.2152 35.6836 23.0395 36.3538 21.9501 37.169C22.0811 36.961 22.2167 36.7483 22.3523 36.5341C22.9378 35.6158 23.548 34.6573 24.0426 33.6973C24.7699 32.2843 25.2846 30.8066 25.1243 29.3335C24.9718 27.919 24.2029 26.5476 22.514 25.2671C22.5218 25.1731 22.5218 25.076 22.5156 24.9759C22.4617 24.9158 22.3399 24.8418 22.0656 24.7663C21.7929 24.6908 21.4647 24.6384 21.0841 24.5768C20.9593 24.5552 20.8283 24.5352 20.6927 24.512C20.1657 24.4211 19.5802 24.304 19.0593 24.0914C18.6603 23.9265 18.2858 23.7015 18.0008 23.381C17.7142 23.7015 17.3397 23.9265 16.9406 24.0914C16.4198 24.304 15.8358 24.4211 15.3073 24.512C15.1717 24.5352 15.0407 24.5552 14.9159 24.5768C14.5353 24.6384 14.2071 24.6908 13.9343 24.7663C13.6601 24.8418 13.5383 24.9158 13.4844 24.9759C13.4782 25.076 13.4782 25.1731 13.4859 25.2671C11.7987 26.5476 11.0282 27.919 10.8757 29.3335C10.7169 30.8066 11.2301 32.2843 11.9574 33.6973ZM12.2332 23.0513C10.8988 24.2362 9.40564 25.8511 8.81394 28.1331C8.37478 29.8204 8.43487 31.8436 9.36711 34.2967C8.41946 33.7405 7.47334 33.1426 6.5565 32.4292C6.29301 31.7142 6.16666 31.0485 6.14509 30.4276C6.09116 28.8574 6.70289 27.5199 7.56579 26.3349C8.24687 25.3981 9.06819 24.5737 9.8371 23.8032C10.0497 23.5906 10.2593 23.3795 10.4612 23.173C10.8849 22.7354 11.2748 22.3086 11.5706 21.891H11.6153C11.7324 22.2038 11.8788 22.5012 12.0514 22.7785C12.113 22.8756 12.1731 22.9665 12.2332 23.0513ZM9.87098 22.7416C9.68299 22.9357 9.48268 23.1376 9.27466 23.3456C8.50113 24.1207 7.62899 24.9943 6.91401 25.9774C5.99872 27.2364 5.31454 28.7033 5.37464 30.4476C5.38697 30.802 5.43012 31.1672 5.50871 31.5432C4.8831 30.9699 4.28061 30.3243 3.70894 29.5816C3.63806 29.2719 3.59799 28.9545 3.59182 28.6309C3.56563 27.1208 4.30065 25.4166 6.5257 23.7062C8.38249 22.2777 9.55357 21.0419 10.2516 20.0588C10.6014 19.5688 10.8356 19.1374 10.9773 18.7737C11.0005 18.7121 11.0236 18.6505 11.0421 18.5919C11.0945 18.632 11.1469 18.672 11.2008 18.7136L11.4242 18.8831C11.3996 19.0912 11.3564 19.4471 11.3287 19.7245C11.2963 20.0558 11.2979 20.3855 11.3333 20.7137C11.2747 20.9418 11.153 21.1883 10.9712 21.458C10.7031 21.854 10.3225 22.2777 9.87098 22.7416ZM10.381 18.0125C10.3764 18.1343 10.3425 18.3146 10.247 18.5596C10.1283 18.8662 9.92184 19.2514 9.59671 19.7075C8.94645 20.6228 7.8293 21.8093 6.01412 23.2054C3.79369 24.9142 2.89997 26.6785 2.82601 28.3258C2.55173 27.8989 2.29902 27.4721 2.06943 27.0453C2.08022 26.7648 2.11257 26.4859 2.16496 26.2101C2.48547 24.5459 3.58566 22.9126 5.75986 21.4318C7.61973 20.1636 8.67834 18.9756 9.29161 18.0726C9.48423 17.7891 9.63368 17.5333 9.7477 17.3145C9.93261 17.5487 10.1437 17.7829 10.381 18.0125ZM8.62749 17.7336C8.06352 18.5642 7.0681 19.689 5.28374 20.9063C3.10183 22.3918 1.88912 24.0652 1.46538 25.8203C1.23578 25.3041 1.03701 24.7894 0.864427 24.2763C1.10327 22.7924 1.90762 21.0358 3.90308 19.6813C5.652 18.4948 6.90477 17.4316 7.76151 16.5795C8.18063 16.1619 8.50883 15.7921 8.75537 15.4793C8.87248 15.8476 9.03581 16.222 9.25616 16.598C9.23921 16.6365 9.22072 16.6781 9.20069 16.7228C9.08666 16.9724 8.90947 17.3176 8.62749 17.7336ZM8.53812 14.487C8.39635 14.7643 7.98337 15.3422 7.18057 16.1403C6.35927 16.957 5.1435 17.9925 3.42848 19.1543C1.82287 20.2438 0.919915 21.572 0.451482 22.8448C0.171039 21.6783 0.0292771 20.535 0 19.4379C0.423747 18.4948 1.6395 17.0418 4.28522 15.9647C6.01873 15.2605 7.28691 14.4238 8.15597 13.6795C8.28387 13.5701 8.40252 13.4623 8.515 13.3559C8.48727 13.7088 8.48881 14.0894 8.53812 14.487ZM3.95857 15.3607C2.40996 15.9909 1.2928 16.7567 0.519268 17.5087C0.497695 16.729 0.665665 15.9185 1.11869 15.185C1.62564 14.3621 2.5055 13.6164 3.93853 13.1217C6.53341 12.2265 7.79695 11.4375 8.49189 10.9259C8.67834 11.0138 8.87403 11.0954 9.07897 11.1725C8.97419 11.4144 8.88173 11.6594 8.80315 11.9029C8.62286 12.1972 8.24381 12.6641 7.61512 13.2034C6.80615 13.8968 5.61041 14.6873 3.95857 15.3607ZM9.38251 10.5577C7.03881 9.67628 6.10964 8.02906 6.08499 6.56213C6.06034 5.00274 7.02649 3.76693 8.29773 3.62671C8.86786 3.56507 9.44261 3.8147 10.2824 4.4326C10.6799 4.72537 11.1145 5.0844 11.6199 5.49891L11.6769 5.54667C12.093 5.88875 12.5506 6.26473 13.0653 6.66536C12.8418 6.8102 12.6261 6.97354 12.4088 7.14613C11.8849 6.39571 10.4827 5.62988 7.73221 5.78859C7.51957 5.80091 7.35931 5.95963 7.37318 6.14454C7.38705 6.32791 7.57042 6.46813 7.78307 6.45581C10.6368 6.29093 11.5953 7.17232 11.8248 7.62226C11.7894 7.65308 11.754 7.68235 11.7201 7.71317C11.0945 7.55138 10.3348 7.51902 9.61674 7.55446C8.81239 7.59453 8.0142 7.72241 7.44407 7.88729C7.24221 7.94584 7.13434 8.13538 7.2006 8.3095C7.2684 8.48516 7.48568 8.57916 7.68754 8.52214C8.18217 8.37884 8.911 8.25865 9.66141 8.22167C10.1792 8.19547 10.6846 8.21089 11.116 8.27715C10.398 8.99366 9.81396 9.76257 9.38251 10.5577ZM12.1423 5.00736C11.6445 4.59748 11.1962 4.2292 10.7817 3.9241C9.93108 3.29696 9.12672 2.86242 8.20065 2.96412C6.37006 3.16598 5.28681 4.84556 5.31454 6.57137C5.33149 7.62534 5.75217 8.74249 6.67825 9.67628C5.99717 9.69939 5.15583 9.80571 4.2883 10.0492C3.72742 10.2063 3.14959 10.4221 2.59333 10.7148C3.39614 9.73176 4.28986 9.12463 5.13119 9.01831C4.45012 7.47895 3.74901 5.76856 5.74909 3.64828C6.96024 2.36317 8.88635 1.80845 10.3995 2.71758C10.7693 2.93793 11.1191 3.19372 11.4489 3.4603C12.0714 3.96726 12.6384 4.52814 13.1808 5.06438C13.3966 5.27856 13.6092 5.48812 13.8203 5.68998C13.9821 5.84407 14.1423 5.99354 14.3011 6.13376C14.1994 6.15379 14.0992 6.17998 13.999 6.2108C13.9143 6.23699 13.8311 6.26781 13.7494 6.30017C13.1762 5.85793 12.6692 5.44189 12.2085 5.06128L12.1423 5.00736ZM7.50725 10.3651C7.60124 10.4298 7.69832 10.493 7.80002 10.5546C7.12665 11.023 5.93554 11.7133 3.65347 12.5007C2.22352 12.9938 1.25275 13.7288 0.634854 14.5763C0.708817 14.3329 0.78739 14.0956 0.872139 13.8629C1.24504 12.8305 1.89683 11.8921 2.85681 11.3605C3.39612 11.0615 3.96473 10.8427 4.52561 10.684C5.74446 10.3419 6.89089 10.3019 7.50725 10.3651ZM16.56 12.5886L15.2996 16.3607C15.6478 15.3006 15.5338 14.2774 15.3843 13.5686C14.8681 13.6148 14.4906 13.5809 14.1362 13.5023C13.1993 13.2943 12.5753 12.5747 11.9805 11.8906C11.8911 11.7873 11.8048 11.6871 11.7154 11.5885C11.5953 11.4529 11.4535 11.3127 11.284 11.1586C11.5567 11.2002 11.8218 11.2403 12.0837 11.2788C13.6955 11.5146 15.1147 11.7226 16.56 12.5886ZM15.2857 16.4038C15.2903 16.3884 15.295 16.3746 15.2996 16.3607L15.2857 16.4038ZM20.1611 3.96109C21.0055 2.73761 22.1859 1.39857 23.7714 0.290663C24.1181 0.338431 24.4679 0.401617 24.8208 0.486367C23.6112 1.10273 22.6204 2.03496 21.7667 2.98723C21.3044 3.50498 20.8684 4.04275 20.46 4.54816C20.2859 4.76235 20.1164 4.97192 19.9515 5.1707C19.534 5.67611 19.1441 6.11988 18.765 6.46659C19.0332 5.8379 19.4862 4.94264 20.1611 3.96109ZM22.3754 3.39866C23.377 2.27997 24.4879 1.29226 25.8408 0.783761C26.2892 0.939392 26.7376 1.13046 27.1799 1.3616C25.9734 1.58965 24.9286 2.23837 24.0241 2.97337C23.3723 3.50344 22.7652 4.10439 22.2151 4.64833C22.0056 4.85635 21.8037 5.05513 21.6096 5.24004C21.2551 5.58057 20.93 5.86872 20.6265 6.0829C20.6111 6.09369 20.5956 6.10448 20.5802 6.11527C20.3922 6.143 20.1981 6.18615 19.9931 6.24316C20.1888 6.02589 20.383 5.7963 20.5787 5.56054C20.7513 5.35098 20.9254 5.13526 21.1026 4.91645C21.5078 4.4172 21.9239 3.901 22.3754 3.39866ZM22.2937 25.9959C23.6482 27.1085 24.2337 28.2518 24.357 29.3967C24.4987 30.7003 24.0472 32.0517 23.3384 33.4246C22.8577 34.3584 22.2752 35.2737 21.6989 36.1782C21.4216 36.6127 21.1473 37.0457 20.8853 37.4772C20.6234 37.9071 20.3737 38.337 20.1565 38.7638C19.6002 39.3586 19.0855 40.032 18.6248 40.8148C18.7882 40.0905 19.0409 39.374 19.3383 38.659C19.6064 38.0196 19.9068 37.3847 20.215 36.7483L20.3106 36.548C20.5849 35.9779 20.8607 35.4062 21.1118 34.8345C22.192 32.3722 22.8423 29.8251 21.0148 27.0946C21.5864 26.8219 22.0395 26.4567 22.2937 25.9959ZM23.9486 22.7785C24.1212 22.5012 24.2676 22.2038 24.3847 21.891H24.4294C24.7252 22.3086 25.1151 22.7354 25.5388 23.173C25.7407 23.3795 25.9503 23.5906 26.1644 23.8032C26.9318 24.5737 27.7546 25.3981 28.4357 26.3349C29.2971 27.5199 29.9088 28.8574 29.8549 30.4276C29.8333 31.0485 29.707 31.7142 29.4435 32.4292C28.5266 33.1426 27.5805 33.7405 26.6344 34.2967C27.5666 31.8436 27.6252 29.8204 27.1876 28.1331C26.5944 25.8511 25.1028 24.2362 23.7668 23.0513C23.8269 22.9665 23.8885 22.8756 23.9486 22.7785ZM25.0288 21.458C24.847 21.1883 24.7268 20.9418 24.6667 20.7137C24.7037 20.3855 24.7052 20.0558 24.6713 19.7245C24.6436 19.4471 24.602 19.0912 24.5758 18.8831L24.8008 18.7136C24.8531 18.672 24.9071 18.632 24.9579 18.5919C24.9779 18.6505 24.9995 18.7121 25.0242 18.7737C25.1644 19.1374 25.3986 19.5688 25.7484 20.0588C26.4464 21.0419 27.6175 22.2777 29.4743 23.7062C31.6993 25.4166 32.4344 27.1208 32.4082 28.6309C32.402 28.9545 32.3619 29.2719 32.2926 29.5816C31.7209 30.3243 31.1169 30.9699 30.4913 31.5432C30.5699 31.1672 30.613 30.802 30.6253 30.4476C30.6854 28.7033 30.0013 27.2364 29.086 25.9774C28.371 24.9943 27.4989 24.1207 26.7253 23.3456C26.5173 23.1376 26.317 22.9357 26.129 22.7416C25.6775 22.2777 25.2969 21.854 25.0288 21.458ZM26.2523 17.3145C26.3678 17.5333 26.5158 17.7891 26.7084 18.0726C27.3217 18.9756 28.3818 20.1636 30.2417 21.4318C32.4143 22.9126 33.5145 24.5459 33.835 26.2101C33.8874 26.4859 33.9198 26.7648 33.9321 27.0453C33.701 27.4721 33.4483 27.8989 33.174 28.3258C33.1 26.6785 32.2063 24.9142 29.9859 23.2054C28.1722 21.8093 27.0535 20.6228 26.4033 19.7075C26.0781 19.2514 25.8717 18.8662 25.753 18.5596C25.6575 18.3146 25.6236 18.1343 25.619 18.0125C25.8578 17.7829 26.0674 17.5487 26.2523 17.3145ZM26.7993 16.7228C26.7793 16.6781 26.7608 16.6365 26.7438 16.598C26.9642 16.222 27.1275 15.8476 27.2446 15.4793C27.4912 15.7921 27.8194 16.1619 28.24 16.5795C29.0952 17.4316 30.348 18.4948 32.0969 19.6813C34.0924 21.0358 34.8967 22.7924 35.1356 24.2763C34.9645 24.7894 34.7642 25.3041 34.5346 25.8203C34.1109 24.0652 32.8982 22.3918 30.7178 20.9063C28.9319 19.689 27.9365 18.5642 27.3725 17.7336C27.0905 17.3176 26.9133 16.9724 26.7993 16.7228ZM27.4865 13.3559C27.5975 13.4623 27.7161 13.5701 27.844 13.6795C28.7131 14.4238 29.9828 15.2605 31.7148 15.9647C34.3605 17.0418 35.5762 18.4948 36 19.4379C35.9707 20.535 35.8289 21.6783 35.5485 22.8448C35.0801 21.572 34.1771 20.2438 32.5715 19.1543C30.858 17.9925 29.6423 16.957 28.8194 16.1403C28.0166 15.3422 27.6036 14.7643 27.4634 14.487C27.5112 14.0894 27.5127 13.7088 27.4865 13.3559ZM28.3849 13.2034C27.7562 12.6641 27.3771 12.1972 27.1968 11.9029C27.1198 11.6594 27.0273 11.4144 26.921 11.1725C27.126 11.0954 27.3217 11.0138 27.5096 10.9259C28.2031 11.4375 29.4666 12.2265 32.0615 13.1217C33.4945 13.6164 34.3744 14.3621 34.8828 15.185C35.3343 15.9185 35.5023 16.729 35.4822 17.5087C34.7072 16.7567 33.59 15.9909 32.0414 15.3607C30.3896 14.6873 29.1938 13.8968 28.3849 13.2034ZM24.884 8.27715C25.317 8.21089 25.8208 8.19547 26.3386 8.22167C27.089 8.25865 27.8178 8.37884 28.3124 8.52214C28.5143 8.57916 28.7316 8.48516 28.7994 8.3095C28.8672 8.13538 28.7578 7.94584 28.5559 7.88729C27.9858 7.72241 27.1876 7.59453 26.3832 7.55446C25.6667 7.51902 24.9055 7.55138 24.2799 7.71317C24.246 7.68235 24.2106 7.65308 24.1751 7.62226C24.4063 7.17232 25.3632 6.29093 28.2169 6.45581C28.4296 6.46813 28.6129 6.32791 28.6268 6.14454C28.6422 5.95963 28.4804 5.80091 28.2678 5.78859C25.5173 5.62988 24.115 6.39571 23.5911 7.14613C23.3739 6.97354 23.1581 6.8102 22.9363 6.66536C23.4494 6.26473 23.907 5.88875 24.3231 5.54667L24.3801 5.49891C24.8855 5.0844 25.32 4.72537 25.7176 4.4326C26.5574 3.8147 27.1337 3.56507 27.7023 3.62671C28.9735 3.76693 29.9396 5.00274 29.915 6.56213C29.8903 8.02906 28.9612 9.67628 26.619 10.5577C26.186 9.76257 25.602 8.99366 24.884 8.27715ZM23.793 5.06128C23.3323 5.44189 22.8253 5.85793 22.2506 6.30017C22.1689 6.26781 22.0872 6.23699 22.0009 6.2108C21.9008 6.17998 21.8006 6.15379 21.6989 6.13376C21.8576 5.99354 22.0194 5.84407 22.1812 5.68998C22.3908 5.48812 22.6034 5.27856 22.8191 5.06438C23.3615 4.52814 23.9286 3.96726 24.5511 3.4603C24.8809 3.19372 25.2322 2.93793 25.6005 2.71758C27.1136 1.80845 29.0397 2.36317 30.2509 3.64828C32.251 5.76856 31.5514 7.47895 30.8688 9.01831C31.7101 9.12463 32.6038 9.73176 33.4067 10.7148C32.8504 10.4221 32.2726 10.2063 31.7117 10.0492C30.8442 9.80571 30.0028 9.69939 29.3217 9.67628C30.2478 8.74249 30.6685 7.62534 30.6854 6.57137C30.7132 4.84556 29.6299 3.16598 27.7993 2.96412C26.8748 2.86242 26.0689 3.29696 25.2183 3.9241C24.8038 4.2292 24.3554 4.59748 23.8593 5.00736L23.793 5.06128ZM31.4744 10.684C32.0353 10.8427 32.6054 11.0615 33.1432 11.3605C34.1032 11.8921 34.7549 12.8305 35.1278 13.8629C35.2126 14.0956 35.2912 14.3329 35.3651 14.5763C34.7472 13.7288 33.7765 12.9938 32.3465 12.5007C30.066 11.7133 28.8733 11.023 28.2015 10.5546C28.3017 10.493 28.3987 10.4298 28.4927 10.3651C29.1091 10.3019 30.2555 10.3419 31.4744 10.684ZM23.9178 11.2788C24.1782 11.2403 24.4433 11.2002 24.716 11.1586C24.5465 11.3127 24.4047 11.4529 24.2845 11.5885C24.1967 11.6871 24.1089 11.7873 24.0195 11.889C23.4247 12.5747 22.8007 13.2943 21.8638 13.5023C21.5094 13.5809 21.1334 13.6148 20.6172 13.5686C20.4662 14.2774 20.3522 15.3006 20.7004 16.3607L19.4415 12.5886C20.8853 11.7226 22.3045 11.5146 23.9178 11.2788ZM20.7143 16.4038L20.7004 16.3607C20.705 16.3746 20.7097 16.3884 20.7143 16.4038Z" fill="#446400"></path></g>
            <g id="logotype" transform="translate(42, 1)"><path fill="#446400" d="M24.51 34L8.31 34L8.31 8.54L13.52 8.54L13.52 29.68L24.51 29.68L24.51 34ZM34.25 34.38L34.25 34.38Q31.38 34.38 29.27 33.14Q27.17 31.90 26.04 29.68Q24.90 27.47 24.90 24.53L24.90 24.53Q24.90 21.56 26.04 19.35Q27.17 17.13 29.27 15.89Q31.38 14.65 34.25 14.65L34.25 14.65Q37.14 14.65 39.23 15.89Q41.32 17.13 42.46 19.35Q43.60 21.56 43.60 24.53L43.60 24.53Q43.60 27.47 42.46 29.68Q41.32 31.90 39.23 33.14Q37.14 34.38 34.25 34.38ZM34.25 30.34L34.25 30.34Q35.61 30.34 36.54 29.58Q37.46 28.82 37.92 27.50Q38.38 26.17 38.38 24.52L38.38 24.52Q38.38 22.82 37.92 21.51Q37.46 20.19 36.54 19.44Q35.61 18.69 34.25 18.69L34.25 18.69Q32.88 18.69 31.97 19.44Q31.05 20.19 30.59 21.51Q30.13 22.82 30.13 24.52L30.13 24.52Q30.13 26.17 30.59 27.50Q31.05 28.82 31.97 29.58Q32.88 30.34 34.25 30.34ZM53.37 41.55L53.37 41.55Q50.99 41.55 49.22 40.95Q47.44 40.34 46.33 39.28Q45.22 38.22 44.79 36.87L44.79 36.87L49.20 35.64Q49.44 36.17 49.94 36.67Q50.45 37.18 51.28 37.50Q52.12 37.83 53.35 37.83L53.35 37.83Q55.32 37.83 56.44 36.93Q57.56 36.03 57.56 34.14L57.56 34.14L57.56 30.62L57.16 30.62Q56.82 31.39 56.17 32.10Q55.52 32.82 54.47 33.27Q53.42 33.73 51.87 33.73L51.87 33.73Q49.71 33.73 47.95 32.72Q46.19 31.71 45.14 29.64Q44.09 27.57 44.09 24.41L44.09 24.41Q44.09 21.18 45.16 19.01Q46.23 16.84 47.99 15.75Q49.76 14.65 51.88 14.65L51.88 14.65Q53.49 14.65 54.58 15.19Q55.68 15.73 56.35 16.54Q57.03 17.35 57.37 18.11L57.37 18.11L57.59 18.11L57.59 14.89L62.63 14.89L62.63 33.85Q62.63 36.43 61.44 38.14Q60.26 39.86 58.17 40.71Q56.09 41.55 53.37 41.55ZM53.47 29.83L53.47 29.83Q54.79 29.83 55.70 29.18Q56.62 28.53 57.09 27.31Q57.57 26.09 57.57 24.38L57.57 24.38Q57.57 22.69 57.09 21.42Q56.62 20.16 55.70 19.46Q54.79 18.76 53.47 18.76L53.47 18.76Q52.12 18.76 51.21 19.48Q50.29 20.21 49.82 21.47Q49.35 22.74 49.35 24.38L49.35 24.38Q49.35 26.05 49.82 27.28Q50.29 28.50 51.22 29.16Q52.14 29.83 53.47 29.83ZM73.28 34.38L73.28 34.38Q70.41 34.38 68.30 33.14Q66.20 31.90 65.06 29.68Q63.93 27.47 63.93 24.53L63.93 24.53Q63.93 21.56 65.06 19.35Q66.20 17.13 68.30 15.89Q70.41 14.65 73.28 14.65L73.28 14.65Q76.16 14.65 78.26 15.89Q80.35 17.13 81.49 19.35Q82.62 21.56 82.62 24.53L82.62 24.53Q82.62 27.47 81.49 29.68Q80.35 31.90 78.26 33.14Q76.16 34.38 73.28 34.38ZM73.28 30.34L73.28 30.34Q74.64 30.34 75.57 29.58Q76.49 28.82 76.95 27.50Q77.41 26.17 77.41 24.52L77.41 24.52Q77.41 22.82 76.95 21.51Q76.49 20.19 75.57 19.44Q74.64 18.69 73.28 18.69L73.28 18.69Q71.91 18.69 71.00 19.44Q70.08 20.19 69.62 21.51Q69.16 22.82 69.16 24.52L69.16 24.52Q69.16 26.17 69.62 27.50Q70.08 28.82 71.00 29.58Q71.91 30.34 73.28 30.34ZM89.05 34L83.92 34L83.92 14.89L89.05 14.89L89.05 34ZM86.48 12.40L86.48 12.40Q85.32 12.40 84.50 11.63Q83.68 10.86 83.68 9.77L83.68 9.77Q83.68 8.67 84.50 7.90Q85.32 7.13 86.48 7.13L86.48 7.13Q87.65 7.13 88.48 7.90Q89.30 8.66 89.30 9.77L89.30 9.77Q89.30 10.86 88.48 11.63Q87.65 12.40 86.48 12.40ZM96.26 41.14L91.13 41.14L91.13 14.89L96.17 14.89L96.17 18.11L96.41 18.11Q96.77 17.35 97.43 16.55Q98.09 15.75 99.16 15.20Q100.24 14.65 101.86 14.65L101.86 14.65Q103.98 14.65 105.74 15.75Q107.50 16.84 108.55 19.03Q109.61 21.22 109.61 24.48L109.61 24.48Q109.61 27.66 108.58 29.86Q107.55 32.05 105.79 33.19Q104.03 34.32 101.83 34.32L101.83 34.32Q100.27 34.32 99.20 33.79Q98.12 33.27 97.45 32.49Q96.77 31.71 96.41 30.94L96.41 30.94L96.26 30.94L96.26 41.14ZM100.26 30.21L100.26 30.21Q101.59 30.21 102.50 29.47Q103.42 28.74 103.89 27.44Q104.36 26.14 104.36 24.46L104.36 24.46Q104.36 22.79 103.89 21.51Q103.42 20.23 102.51 19.49Q101.61 18.76 100.26 18.76L100.26 18.76Q98.94 18.76 98.02 19.47Q97.10 20.17 96.62 21.45Q96.14 22.72 96.14 24.46L96.14 24.46Q96.14 26.19 96.63 27.48Q97.11 28.77 98.04 29.49Q98.96 30.21 100.26 30.21ZM118.51 34.38L118.51 34.38Q116.20 34.38 114.42 33.72Q112.65 33.06 111.52 31.80Q110.39 30.55 110.06 28.77L110.06 28.77L114.83 27.95Q115.21 29.28 116.15 29.95Q117.09 30.62 118.66 30.62L118.66 30.62Q120.11 30.62 120.97 30.06Q121.82 29.51 121.82 28.65L121.82 28.65Q121.82 27.90 121.22 27.42Q120.61 26.94 119.36 26.69L119.36 26.69L116.06 26.00Q113.29 25.44 111.93 24.08Q110.56 22.72 110.56 20.58L110.56 20.58Q110.56 18.74 111.57 17.41Q112.58 16.09 114.37 15.37Q116.17 14.65 118.59 14.65L118.59 14.65Q120.85 14.65 122.51 15.28Q124.16 15.90 125.19 17.05Q126.21 18.19 126.56 19.75L126.56 19.75L122.01 20.55Q121.72 19.58 120.89 18.95Q120.06 18.33 118.66 18.33L118.66 18.33Q117.40 18.33 116.54 18.86Q115.69 19.39 115.69 20.26L115.69 20.26Q115.69 20.99 116.24 21.49Q116.80 21.99 118.15 22.26L118.15 22.26L121.58 22.94Q124.35 23.51 125.70 24.78Q127.05 26.05 127.05 28.10L127.05 28.10Q127.05 29.98 125.96 31.39Q124.86 32.80 122.94 33.59Q121.02 34.38 118.51 34.38ZM134.83 34.24L134.83 34.24Q132.84 34.24 131.36 33.38Q129.87 32.51 129.06 30.90Q128.25 29.28 128.25 27.04L128.25 27.04L128.25 14.89L133.37 14.89L133.37 26.16Q133.37 27.93 134.30 28.94Q135.22 29.95 136.83 29.95L136.83 29.95Q137.92 29.95 138.76 29.48Q139.59 29.01 140.06 28.11Q140.53 27.22 140.53 25.95L140.53 25.95L140.53 14.89L145.66 14.89L145.66 34L140.82 34L140.76 29.23L141.05 29.23Q140.29 31.64 138.75 32.94Q137.20 34.24 134.83 34.24ZM152.89 34L147.76 34L147.76 14.89L152.51 14.89L152.77 19.64L152.39 19.64Q152.84 17.88 153.70 16.77Q154.56 15.66 155.72 15.13Q156.89 14.60 158.17 14.60L158.17 14.60Q160.24 14.60 161.50 15.91Q162.77 17.22 163.36 19.95L163.36 19.95L162.77 19.95Q163.19 18.12 164.16 16.94Q165.12 15.75 166.45 15.18Q167.77 14.60 169.23 14.60L169.23 14.60Q170.99 14.60 172.36 15.37Q173.74 16.14 174.53 17.59Q175.33 19.03 175.33 21.11L175.33 21.11L175.33 34L170.20 34L170.20 22.09Q170.20 20.46 169.32 19.68Q168.44 18.89 167.16 18.89L167.16 18.89Q166.20 18.89 165.49 19.31Q164.78 19.73 164.40 20.48Q164.01 21.23 164.01 22.24L164.01 22.24L164.01 34L159.06 34L159.06 21.95Q159.06 20.55 158.23 19.72Q157.40 18.89 156.08 18.89L156.08 18.89Q155.18 18.89 154.45 19.30Q153.73 19.71 153.31 20.51Q152.89 21.30 152.89 22.45L152.89 22.45L152.89 34Z"></path></g>
            
          </svg>